<svg width="136" height="56" viewBox="0 0 136 56" fill="none" xmlns="http://www.w3.org/2000/svg">
<path d="M5.16546 16.6779C5.34735 16.6779 5.53623 16.6849 5.72162 16.7023C6.86541 16.8143 8.01619 17.3354 8.78922 18.1994C11.9757 21.7497 4.35396 26.2899 1.33534 24.0303C-0.056802 22.9879 -0.329633 20.8123 0.373431 19.3327C1.20592 17.5908 3.29412 16.6779 5.16546 16.6779Z" fill="black"/>
<path d="M7.22927 31.2739C9.96807 32.2358 11.2728 36.4367 8.3101 37.9512C6.07848 39.095 2.822 37.4685 3.03537 34.7647C3.09483 33.9812 3.4656 33.2536 3.97628 32.673C4.47647 32.0993 5.10258 31.4942 5.86511 31.3053C6.24288 31.2144 6.855 31.1479 7.22927 31.2739Z" fill="black"/>
<path d="M65.2756 18.9057C66.2235 19.3464 67.077 19.9935 67.9689 20.805C70.6587 23.257 71.6836 26.6638 70.6378 30.1827C69.2316 34.9117 63.754 36.3528 59.4902 37.4652C58.2135 37.654 57.0032 37.7625 56.587 37.9164C57.2725 41.5961 63.1069 41.4177 65.6813 40.4978C66.8986 40.064 68.1053 39.5918 69.2736 39.0427C69.8158 38.7873 71.883 37.2623 72.3727 37.8499C73.2506 38.8993 73.2122 41.3407 72.593 42.5405C72.2712 43.1701 71.4038 43.7752 70.8161 44.0656C66.4369 46.2237 60.2667 47.0282 56.1183 43.9326C54.894 43.0162 53.5544 41.7605 52.6939 40.4873C52.0118 39.4799 51.4312 38.2906 51.0604 37.1294C49.9061 33.5161 49.6578 29.0459 51.4067 25.576C52.6204 23.1765 54.8171 20.8225 57.1956 19.5458C58.5493 18.8182 60.8089 18.1606 62.3584 18.2166C63.4777 18.2621 64.4151 18.4999 65.2756 18.9057ZM60.3891 24.6981C59.5986 25.0339 58.8501 25.555 58.2974 26.0237C55.9084 28.0665 55.2053 29.9343 55.4502 33.0964C55.4747 33.4077 57.4195 32.6416 58.0561 32.3968C60.3751 31.4874 65.4575 29.3572 63.9394 25.7894C63.2154 24.0894 61.7463 24.1209 60.3891 24.6981Z" fill="black"/>
<path d="M104.801 34.4152C104.791 34.5096 104.78 34.6076 104.77 34.702C104.486 37.4898 104.308 40.295 103.916 43.0723C103.717 44.4819 103.573 45.8986 103.346 47.3012C103.171 48.3575 103.028 49.4628 102.458 50.3933C100.677 53.2965 98.1413 51.8729 96.4098 49.4628C96.4098 49.4628 90.6979 41.138 88.1445 36.4229C84.7516 30.1548 82.6948 26.3527 81.3062 23.5544C81.2782 23.9567 81.3062 23.9462 81.3587 24.7507C81.6525 29.1229 81.9778 34.8524 82.2156 39.2282C82.3416 41.6067 82.471 43.9852 82.6074 46.3673C82.7298 48.4555 83.0551 50.7221 82.1037 52.6774C81.2642 54.3913 79.6902 54.017 78.5184 52.9397C77.8189 52.2996 76.8814 51.3552 76.4862 50.047C76.1154 48.8227 76.0909 47.8748 75.9125 46.6156C74.5869 37.3778 74.3455 27.7273 74.426 18.4021C74.4504 15.4149 74.412 3.36491 76.9199 3.8756C77.8014 4.05399 79.2775 4.3513 79.8896 4.99141C80.827 5.9708 81.3692 7.39092 81.8414 8.62565C83.4818 12.8825 85.2308 16.975 87.3504 21.5711C88.935 25.013 90.6979 28.3219 92.4888 31.6519C93.5941 33.7086 94.7693 35.7234 95.9726 37.7241C96.2944 38.2593 96.6442 38.784 97.0115 39.2911C97.1898 39.5395 97.3263 39.571 97.3193 39.6374C97.5851 37.3044 97.4837 34.9049 97.5501 32.5718C97.7075 27.0312 97.8474 21.4872 98.5645 15.9921C99.0682 12.1235 99.4634 8.12896 100.754 4.43175C101.223 3.08509 101.723 1.40963 103.038 0.657592C103.857 0.192381 104.997 0.00349783 105.927 0C106.742 0 107.585 0.237853 108.306 0.598129C109.611 1.25572 109.362 2.77028 109.159 3.91407C109.013 4.72207 108.799 6.17367 108.642 7.15307C108.365 8.88449 108.187 9.79043 107.904 11.5184C107.568 13.5611 107.232 15.6003 106.942 17.6536C106.54 20.4763 106.179 23.3026 105.816 26.1288C105.462 28.8921 105.088 31.6519 104.801 34.4152Z" fill="black"/>
<path d="M121.906 4.07113C122.07 4.26701 122.27 4.68326 122.511 5.2534C124.568 10.1259 129.216 26.7476 129.262 26.8945C129.262 26.8945 131.626 26.6776 132.231 26.6951C133.959 26.5622 135.236 26.5517 135.002 28.7239C134.795 30.6162 134.62 31.711 133.508 31.9174C131.833 32.1517 130.598 32.2672 130.213 32.2811C130.252 32.3931 133.046 45.405 133.204 46.6712C133.319 47.6017 133.463 48.4936 133.375 49.4135C133.295 50.267 133.004 50.8441 132.406 51.5437C131.791 52.2713 131.416 52.9778 130.423 52.4741C129.779 52.1488 128.996 51.8725 128.461 51.3758C127.915 50.8686 127.723 50.1271 127.415 49.4695C126.96 48.4936 124.627 36.7724 124.344 35.0479C124.218 34.2784 123.875 32.9457 123.875 32.9457C122.497 32.9457 121.122 33.1136 119.751 33.2291C118.684 33.32 116.617 33.4494 116.099 33.6733C115.575 33.9916 115.358 36.3176 115.26 36.8703C114.347 41.8512 114.225 46.9266 113.997 51.9704C113.969 52.6001 114.116 53.6109 113.305 53.7543C112.43 53.9117 110.839 52.5826 110.206 52.0614C109.541 51.5122 108.705 50.2635 108.446 49.0707C107.484 44.6635 108.652 40.3681 109.548 36.0553C111.101 28.6014 113.112 21.249 115.393 13.991C116.152 11.5775 116.939 9.17447 117.824 6.80644C118.121 6.01593 118.373 5.21143 118.789 4.47339C119.121 3.88225 119.594 3.24914 120.356 3.33309C120.64 3.36457 120.912 3.46601 121.168 3.59543C121.413 3.71785 121.72 3.85077 121.906 4.07113ZM120.069 28.43C120.919 28.3181 123.022 28.1327 123.022 28.1327C122.798 25.8591 122.395 24.481 122.021 22.2249C121.808 20.9622 121.427 18.7585 120.79 17.6322C120.367 16.8802 119.615 18.9264 119.517 19.1748C118.912 20.7558 118.453 22.3368 118.065 23.9773C117.936 24.523 117.397 26.139 116.988 28.9057C116.984 28.9092 118.282 28.6784 120.069 28.43Z" fill="black"/>
<path d="M31.7492 42.9044C30.5004 43.6145 29.1852 44.2231 27.8561 44.7408C27.083 45.0416 23.4978 46.5491 23.7146 44.4679C24.0399 41.3863 24.3967 37.4023 24.4527 34.3067C24.5506 29.3993 24.3862 24.4743 23.886 19.5879C23.7496 18.2692 23.5327 16.7826 23.3509 15.4709C23.0186 13.5191 22.6023 11.3644 22.256 9.668C21.8608 7.69522 24.7045 8.30734 25.7888 8.55919C27.9925 9.06637 30.343 10.1262 32.2423 11.3435C36.1389 13.8409 39.5073 17.5766 40.3853 22.1797C41.6725 28.9166 40.1789 36.4054 34.7433 40.8617C33.8094 41.6312 32.802 42.3063 31.7492 42.9044ZM43.1171 11.6408C41.0674 9.09436 38.3671 7.09709 35.6143 5.37266C29.626 1.62299 24.9144 0.0769461 16.2223 0.563145C14.5958 0.654088 12.5006 1.07033 11.3498 1.4376C10.6992 1.64747 10.4648 2.18964 10.3704 2.62337C10.269 3.10607 10.241 3.61325 10.2305 4.10645C10.1955 5.76092 10.15 7.99604 12.0144 8.67811C12.7489 8.95095 13.8542 8.17792 14.1865 9.33221C14.2565 9.56656 14.3055 9.80791 14.3649 10.0458C14.8616 12.0255 15.3338 14.0053 15.6976 16.0096C16.0614 18.0208 16.3097 20.0461 16.4706 22.0818C16.642 24.268 16.726 26.4646 16.7644 28.6612C16.8099 31.1832 16.7854 33.7086 16.7225 36.2305C16.6875 37.6192 16.6385 39.0043 16.5826 40.3895C16.5161 42.0404 16.5196 43.7124 16.2433 45.3424C16.2188 45.4788 16.1873 46.1609 16.0964 46.2029C13.2666 47.3991 9.01674 44.2895 8.68794 49.2914C8.65646 49.7287 9.14966 53.5798 10.0206 54.6641C10.7866 55.612 12.2872 55.8464 14.0361 55.9128C15.1379 55.9513 16.2433 56.0003 17.3451 56.0003C19.2094 56.0003 21.0528 55.8324 22.8717 55.3917C24.6555 54.9544 26.3835 54.3213 28.0659 53.5903C29.5805 52.9327 31.0531 52.1807 32.4627 51.3237C33.8863 50.4562 35.268 49.4943 36.5937 48.4869C40.13 45.7936 43.4914 42.5196 45.5306 38.5251C46.7304 36.1781 47.402 33.037 47.7762 30.4416C48.7171 23.9566 47.283 16.8106 43.1171 11.6408Z" fill="black"/>
</svg>
